<?xml version="1.0" encoding="UTF-8" standalone="no"?>
<!DOCTYPE svg PUBLIC "-//W3C//DTD SVG 1.0//EN" "http://www.w3.org/TR/2001/REC-SVG-20010904/DTD/svg10.dtd">
<!-- Created with Inkscape (http://www.inkscape.org/) -->
<svg
   xmlns:svg="http://www.w3.org/2000/svg"
   xmlns="http://www.w3.org/2000/svg"
   xmlns:xlink="http://www.w3.org/1999/xlink"
   version="1.0"
   width="800"
   height="800"
   id="svg2">
  <defs
     id="defs4">
    <linearGradient
       id="linearGradient3745">
      <stop
         id="stop3747"
         style="stop-color:#3fa43f;stop-opacity:1"
         offset="0" />
      <stop
         id="stop3749"
         style="stop-color:#288a28;stop-opacity:1"
         offset="1" />
    </linearGradient>
    <linearGradient
       id="linearGradient3737">
      <stop
         id="stop3739"
         style="stop-color:#67d167;stop-opacity:1"
         offset="0" />
      <stop
         id="stop3741"
         style="stop-color:#005e00;stop-opacity:1"
         offset="1" />
    </linearGradient>
    <linearGradient
       id="linearGradient3729">
      <stop
         id="stop3731"
         style="stop-color:#ffffff;stop-opacity:1"
         offset="0" />
      <stop
         id="stop3733"
         style="stop-color:#70808a;stop-opacity:1"
         offset="1" />
    </linearGradient>
    <linearGradient
       id="linearGradient3721">
      <stop
         id="stop3723"
         style="stop-color:#a4b4be;stop-opacity:1"
         offset="0" />
      <stop
         id="stop3725"
         style="stop-color:#1b2b35;stop-opacity:1"
         offset="1" />
    </linearGradient>
    <linearGradient
       x1="364.30972"
       y1="117.27007"
       x2="531.88989"
       y2="295.84149"
       id="linearGradient3727"
       xlink:href="#linearGradient3721"
       gradientUnits="userSpaceOnUse" />
    <linearGradient
       x1="369.30972"
       y1="125.12721"
       x2="520.4613"
       y2="283.69864"
       id="linearGradient3735"
       xlink:href="#linearGradient3729"
       gradientUnits="userSpaceOnUse" />
    <linearGradient
       x1="429.61429"
       y1="131.55579"
       x2="460.15677"
       y2="280.84149"
       id="linearGradient3743"
       xlink:href="#linearGradient3737"
       gradientUnits="userSpaceOnUse" />
    <linearGradient
       x1="363.89999"
       y1="206.55579"
       x2="525.87103"
       y2="206.55579"
       id="linearGradient3751"
       xlink:href="#linearGradient3745"
       gradientUnits="userSpaceOnUse" />
  </defs>
  <g
     id="layer1">
    <path
       d="M 557.60421,206.55579 A 114.14724,114.14724 0 1 1 329.30973,206.55579 A 114.14724,114.14724 0 1 1 557.60421,206.55579 z"
       transform="matrix(3.0262866,0,0,3.0262866,-946.0481,-233.68331)"
       id="path3684"
       style="opacity:1;fill:url(#linearGradient3735);fill-opacity:1;fill-rule:evenodd;stroke:url(#linearGradient3727);stroke-width:10;stroke-linecap:round;stroke-linejoin:miter;stroke-miterlimit:4;stroke-dasharray:none;stroke-dashoffset:0;stroke-opacity:1" />
    <path
       d="M 527.29964,206.55579 A 83.842667,83.842667 0 1 1 359.6143,206.55579 A 83.842667,83.842667 0 1 1 527.29964,206.55579 z"
       transform="matrix(3.0262866,0,0,3.0262866,-946.0481,-233.68331)"
       id="path3682"
       style="opacity:1;fill:url(#linearGradient3743);fill-opacity:1;fill-rule:evenodd;stroke:url(#linearGradient3751);stroke-width:10;stroke-linecap:round;stroke-linejoin:miter;stroke-miterlimit:4;stroke-dasharray:none;stroke-dashoffset:0;stroke-opacity:1" />
    <path
       d="M 338.0827,397.77458 C 338.0827,485.91597 439.14312,468.00235 472.09599,418.31012 L 472.09599,248.50281 C 472.09599,241.42372 473.84682,235.27911 489.67378,233.21776 C 505.50075,231.1564 540.41223,231.1564 556.2392,233.21776 C 572.06616,235.27911 573.81699,241.42372 573.81699,248.50281 L 573.81699,434.38757 C 573.81699,439.71199 572.75349,454.65361 583.8261,458.70596 C 595.61672,463.02111 608.4897,464.07822 620.84409,460.32717 C 632.03421,456.92962 638.13714,459.33301 638.13714,471.67575 L 638.13714,498.69616 C 638.13714,506.98661 637.00313,516.24889 626.78857,519.23166 C 576.08519,534.03756 506.20082,531.76799 483.03995,483.02432 C 452.69486,513.69268 384.45597,543.61073 329.564,509.50433 C 337.33545,527.17539 338.0827,546.40106 338.0827,565.47662 L 338.0827,610.7499 C 338.0827,617.82899 336.33187,623.97359 320.50491,626.03495 C 304.67794,628.0963 269.76646,628.0963 253.93949,626.03495 C 238.11253,623.97359 236.3617,617.82899 236.3617,610.7499 L 236.3617,248.50281 C 236.3617,241.42372 238.11253,235.27911 253.93949,233.21776 C 269.76646,231.1564 304.67794,231.1564 320.50491,233.21776 C 336.33187,235.27911 338.0827,241.42372 338.0827,248.50281 L 338.0827,397.77458 z"
       id="path3719"
       style="opacity:0.15079364;fill:#000000;fill-rule:evenodd;stroke:none;stroke-width:1px;stroke-linecap:butt;stroke-linejoin:miter;stroke-opacity:1" />
    <path
       d="M 328.91169,385.54654 C 328.91169,473.68792 429.97211,455.7743 462.92498,406.08207 L 462.92498,236.27476 C 462.92498,229.19567 464.67581,223.05107 480.50277,220.98971 C 496.32974,218.92836 531.24122,218.92836 547.06819,220.98971 C 562.89515,223.05107 564.64598,229.19567 564.64598,236.27476 L 564.64598,422.15952 C 564.64598,427.48394 563.58248,442.42557 574.65509,446.47792 C 586.44571,450.79307 599.31869,451.85018 611.67308,448.09913 C 622.8632,444.70158 628.96613,447.10496 628.96613,459.4477 L 628.96613,486.46811 C 628.96613,494.75857 627.83212,504.02085 617.61756,507.00362 C 566.91418,521.80951 497.02981,519.53995 473.86894,470.79628 C 443.52385,501.46464 375.28496,531.38266 320.39299,497.27628 C 328.16444,514.94735 328.91169,534.17298 328.91169,553.24855 L 328.91169,598.52182 C 328.91169,605.60091 327.16086,611.74552 311.3339,613.80687 C 295.50693,615.86823 260.59545,615.86823 244.76848,613.80687 C 228.94152,611.74552 227.19069,605.60091 227.19069,598.52182 L 227.19069,236.27476 C 227.19069,229.19567 228.94152,223.05107 244.76848,220.98971 C 260.59545,218.92836 295.50693,218.92836 311.3339,220.98971 C 327.16086,223.05107 328.91169,229.19567 328.91169,236.27476 L 328.91169,385.54654 z"
       id="path3717"
       style="opacity:0.48190475;fill:#000000;fill-rule:evenodd;stroke:#000000;stroke-width:3.0262866px;stroke-linecap:butt;stroke-linejoin:miter;stroke-opacity:1" />
    <path
       d="M 313.51588,364.1431 C 313.51588,452.28448 414.5763,434.37086 447.52917,384.67863 L 447.52917,214.87132 C 447.52917,207.79223 449.28,201.64763 465.10696,199.58627 C 480.93393,197.52492 515.84541,197.52492 531.67238,199.58627 C 547.49934,201.64763 549.25017,207.79223 549.25017,214.87132 L 549.25017,400.75608 C 549.25017,406.0805 548.18667,421.02212 559.25928,425.07447 C 571.0499,429.38962 583.92288,430.44674 596.27727,426.69568 C 607.46739,423.29813 613.57032,425.70152 613.57032,438.04426 L 613.57032,465.06467 C 613.57032,473.35512 612.43631,482.61741 602.22175,485.60017 C 551.51837,500.40607 481.634,498.13651 458.47313,449.39283 C 428.12804,480.06119 359.88915,509.97924 304.99718,475.87284 C 312.76863,493.54391 313.51588,512.76957 313.51588,531.84513 L 313.51588,577.11841 C 313.51588,584.1975 311.76505,590.3421 295.93809,592.40346 C 280.11112,594.46481 245.19964,594.46481 229.37268,592.40346 C 213.54571,590.3421 211.79489,584.1975 211.79489,577.11841 L 211.79489,214.87132 C 211.79489,207.79223 213.54571,201.64763 229.37268,199.58627 C 245.19964,197.52492 280.11112,197.52492 295.93809,199.58627 C 311.76505,201.64763 313.51588,207.79223 313.51588,214.87132 L 313.51588,364.1431 z"
       id="path3686"
       style="fill:#ffffff;fill-rule:evenodd;stroke:none;stroke-width:1px;stroke-linecap:butt;stroke-linejoin:miter;stroke-opacity:1" />
  </g>
</svg>
